<svg id="visual" viewBox="0 0 900 600" width="900" height="600" xmlns="http://www.w3.org/2000/svg" xmlns:xlink="http://www.w3.org/1999/xlink" version="1.1"><rect x="0" y="0" width="900" height="600" fill="#001220"></rect><defs><linearGradient id="grad1_0" x1="33.3%" y1="0%" x2="100%" y2="100%"><stop offset="20%" stop-color="#001220" stop-opacity="1"></stop><stop offset="80%" stop-color="#001220" stop-opacity="1"></stop></linearGradient></defs><defs><linearGradient id="grad2_0" x1="0%" y1="0%" x2="66.7%" y2="100%"><stop offset="20%" stop-color="#001220" stop-opacity="1"></stop><stop offset="80%" stop-color="#001220" stop-opacity="1"></stop></linearGradient></defs><g transform="translate(900, 0)"><path d="M0 486.7C-47.8 440.9 -95.6 395.1 -156.5 377.9C-217.5 360.6 -291.6 372 -344.2 344.2C-396.8 316.4 -427.9 249.5 -448.1 185.6C-468.3 121.7 -477.5 60.9 -486.7 0L0 0Z" fill="#FF0066"></path></g><g transform="translate(0, 600)"><path d="M0 -486.7C41.2 -430.8 82.4 -374.9 149.6 -361.2C216.8 -347.6 309.9 -376.1 344.2 -344.2C378.4 -312.2 353.8 -219.8 367.7 -152.3C381.6 -84.9 434.2 -42.4 486.7 0L0 0Z" fill="#FF0066"></path></g></svg>